<svg width="128" height="93" viewBox="0 0 128 93" fill="none" xmlns="http://www.w3.org/2000/svg">
<path d="M65.362 72.2642C65.304 72.2642 65.245 72.2632 65.187 72.2642C54.682 72.2642 42.537 65.9962 39.044 51.9592C33.782 30.8132 62.588 1.88025 63.817 0.65925C64.704 -0.21975 66.131 -0.21975 67.017 0.65925C68.246 1.88025 97.052 30.8132 91.79 51.9592C88.298 65.9952 76.016 72.2642 65.362 72.2642ZM108.343 86.3882C121.202 82.2642 128 76.6782 128 70.2312C128 62.0732 116.74 55.1392 97.107 51.2072L96.216 55.6573C112.766 58.9713 123.461 64.6922 123.461 70.2302C123.461 78.5192 99.041 87.7542 64 87.7542C28.959 87.7542 4.539 78.5202 4.539 70.2312C4.539 65.3712 13.807 58.8233 34.512 55.1423L33.718 50.6743C12.29 54.4823 0 61.6102 0 70.2312C0 76.6782 6.798 82.2642 19.657 86.3882C31.535 90.1962 47.283 92.2943 64 92.2943C80.717 92.2943 96.465 90.1962 108.343 86.3882ZM109.087 68.6532C109.087 64.6312 104.283 61.4353 94.808 59.1543L93.746 63.5662C102.715 65.7262 104.548 68.1292 104.548 68.6532C104.548 71.0582 90.753 76.6982 64 76.6982C37.247 76.6982 23.452 71.0582 23.452 68.6532C23.452 67.9942 25.909 65.0632 37.931 62.7782L37.083 58.3192C25.027 60.6112 18.913 64.0872 18.913 68.6532C18.913 78.6072 48.405 81.2372 64 81.2372C79.595 81.2372 109.087 78.6072 109.087 68.6532Z" fill="#35B0C7"/>
</svg>
